PathFileType	4	(X/Y/Z)	Run_200 02
DataRate	CameraRate	NumFrames	NumMarkers	Units	OrigDataRate	OrigDataStartFrame	OrigNumFrames
100	100	6	42	mm	100	4	128
Frame#	Time	LASI			RASI			LPSI			RPSI			RTH1			RTH2			RTH3			LTH1			LTH2			LTH3			RTB1			RTB2			RTB3			LTB1			LTB2			LTB3			RCAL			RTOE			RMT5			LCAL			LTOE			LMT5			LACR			RACR			CLAV			C7			RUA1			RUA2			RUA3			RLEL			RMEL			LUA1			LUA2			LUA3			LLEL			LMEL			RFAsuperior			RFAradius			RFAulna			LFAsuperior			LFAradius			LFAulna			
		X1	Y1	Z1	X2	Y2	Z2	X3	Y3	Z3	X4	Y4	Z4	X5	Y5	Z5	X6	Y6	Z6	X7	Y7	Z7	X8	Y8	Z8	X9	Y9	Z9	X10	Y10	Z10	X11	Y11	Z11	X12	Y12	Z12	X13	Y13	Z13	X14	Y14	Z14	X15	Y15	Z15	X16	Y16	Z16	X17	Y17	Z17	X18	Y18	Z18	X19	Y19	Z19	X20	Y20	Z20	X21	Y21	Z21	X22	Y22	Z22	X23	Y23	Z23	X24	Y24	Z24	X25	Y25	Z25	X26	Y26	Z26	X27	Y27	Z27	X28	Y28	Z28	X29	Y29	Z29	X30	Y30	Z30	X31	Y31	Z31	X32	Y32	Z32	X33	Y33	Z33	X34	Y34	Z34	X35	Y35	Z35	X36	Y36	Z36	X37	Y37	Z37	X38	Y38	Z38	X39	Y39	Z39	X40	Y40	Z40	X41	Y41	Z41	X42	Y42	Z42	

1	1.14	924.158035	997.28034	-426.258841	930.376245	1009.787034	-186.499752	766.821996	1052.542207	-354.105397	761.308747	1049.398649	-252.825303	920.430148	770.0490119999999	-123.444423	1002.351761	706.402048	-143.236285	970.429075	602.329122	-164.018697	845.986325	797.825694	-461.971141	870.899046	685.134176	-447.371674	781.460333	595.0368570000001	-437.825237	1051.469363	402.82912	-228.899059	1020.797644	320.76341	-184.888845	1057.46087	218.103624	-249.570349	711.442036	399.816819	-375.521878	615.147497	381.390931	-431.660398	564.920212	276.864531	-366.130492	976.3643	102.993745	-281.942047	1195.347304	117.225113	-281.605576	1149.316823	71.327974	-185.918271	419.771988	274.5883	-351.42839	517.553589	80.92020100000001	-332.243662	462.021668	91.520982	-429.264689	920.523988	1488.664268	-446.463037	911.291917	1481.26247	-155.089393	997.108038	1408.044596	-281.279437	871.0580200000001	1514.935605	-302.975616	820.125151	1407.224675	-62.58266	743.883475	1378.489111	-105.893307	738.539574	1308.121376	-39.522058	681.3996519999999	1258.914763	-24.294807	657.848418	1255.658737	-98.544067	877.791305	1385.943166	-545.603032	822.038786	1324.395068	-534.582804	874.725287	1292.207347	-595.314022	860.958116	1207.982111	-631.509815	827.477986	1175.854345	-571.681867	767.8299050000001	1181.658703	-26.759976	868.902739	1115.898081	-98.08587799999999	815.942197	1071.232591	-84.866664	962.192545	1234.716637	-575.156999	1045.305422	1232.576372	-459.935794	1074.147039	1187.543048	-502.178598	
2	1.15	925.138715	993.310931	-425.999496	931.287061	1004.748739	-186.186325	767.512895	1047.174812	-352.775046	762.507417	1043.516287	-251.584024	922.849422	764.812422	-124.642357	1004.56964	701.52582	-144.289709	970.792602	597.133437	-165.387599	850.976854	792.530816	-462.457583	878.629153	679.991658	-446.934223	791.487398	588.091179	-438.436311	1048.095515	395.360841	-230.799278	1015.22529	314.066257	-186.970594	1049.145964	210.288934	-251.682221	719.320208	394.595201	-376.208462	622.199598	380.844724	-432.707005	566.941464	278.801289	-367.2723	964.282821	103.220398	-284.999463	1183.252325	100.327988	-282.403221	1133.3137	61.083463	-185.897861	424.454139	285.611982	-353.290552	505.640419	84.24391799999999	-333.19749	452.130299	99.20981500000001	-429.875223	918.53173	1484.09431	-444.797831	911.996549	1476.546216	-153.473836	996.87352	1403.666413	-280.485135	870.601209	1510.227734	-300.878045	821.644174	1402.038213	-60.324404	745.1141730000001	1372.990581	-103.299604	740.602297	1302.608181	-36.908269	683.904628	1252.904187	-21.586037	659.499602	1249.491052	-95.757121	874.461764	1381.744508	-543.869414	819.125344	1319.723201	-531.949001	871.003854	1288.75606	-594.52081	857.077131	1204.965759	-631.02111	824.2719520000001	1172.279494	-571.178706	771.276532	1176.829051	-24.99292	872.123858	1112.394925	-97.02592799999999	820.132667	1067.107069	-83.453907	959.1013380000001	1230.721911	-575.53349	1042.682181	1226.980371	-461.213141	1072.060343	1182.481824	-504.038249	
3	1.16	926.174857	988.476797	-425.821899	931.649554	999.164454	-185.948863	767.874816	1040.570593	-351.65694	763.098936	1036.748495	-250.810688	924.768329	759.6422690000001	-125.389395	1005.752402	695.923482	-144.480969	971.205797	591.888339	-166.165893	856.267006	786.542649	-462.68687	886.843145	674.20169	-447.278389	802.207323	580.47121	-439.10724	1045.524715	388.661847	-232.728963	1009.317187	308.102685	-188.973979	1040.167064	203.255992	-254.263476	728.5564879999999	388.731731	-377.181466	630.787832	379.518724	-433.588912	570.6722119999999	280.216618	-368.457277	949.130512	103.898511	-287.089712	1168.538994	84.900593	-283.672734	1116.17956	53.312563	-186.824556	431.553165	295.613348	-354.691711	495.359381	87.867645	-334.537604	443.772909	107.283304	-430.46708	916.486726	1478.756554	-443.150831	912.700833	1470.903806	-151.853375	996.5841830000001	1398.305543	-279.873733	869.742029	1504.55994	-298.751471	823.4698550000001	1395.677198	-58.027967	746.574918	1366.184077	-100.397405	743.157028	1295.874295	-33.956859	686.975151	1245.684239	-18.306543	661.731432	1242.026091	-92.363561	870.855939	1376.862942	-542.216075	815.796796	1314.381628	-529.126526	866.601235	1284.584113	-593.453742	852.4570660000001	1201.247898	-630.482994	820.448066	1168.004972	-570.612016	775.399435	1170.958426	-22.790064	875.981034	1107.905843	-95.811868	824.941689	1061.988001	-81.698519	955.445375	1225.667906	-575.991399	1039.625314	1219.925972	-462.78625	1069.316591	1175.954406	-506.310994	
4	1.17	927.214601	982.882305	-425.413354	931.597982	993.553625	-185.572438	767.824809	1032.887586	-350.985403	762.818245	1029.413906	-250.799054	925.803989	755.230506	-125.22176	1006.269829	690.885005	-143.816608	972.802534	587.884383	-166.008024	861.643586	779.744474	-461.99548	895.307731	667.80831	-448.16101	813.4378840000001	572.29998	-439.54812	1044.164071	384.125387	-234.971337	1004.293555	304.239497	-190.574354	1030.827658	198.881315	-257.570402	738.952626	382.697477	-378.292582	640.800647	377.437498	-434.326801	575.872611	281.527059	-369.512479	931.89465	104.702112	-288.316462	1152.112016	74.824675	-284.978486	1098.496398	50.127908	-187.973558	440.303807	304.627841	-355.502478	488.034068	92.22684700000001	-336.703971	437.547965	116.087778	-431.453517	914.357489	1473.01203	-441.787096	913.371634	1464.506526	-150.046666	996.302722	1392.033489	-279.398911	868.304247	1498.175026	-296.548846	825.58331	1388.169909	-55.775379	748.23017	1358.082788	-97.296047	746.215866	1287.93942	-30.698469	690.630305	1237.314836	-14.468717	664.5298	1233.247411	-88.357855	866.842098	1371.293918	-540.6101650000001	812.048825	1308.467371	-526.264997	861.578873	1279.749231	-592.21498	847.084809	1196.907541	-629.883629	815.939581	1163.148222	-569.937634	780.150952	1164.017427	-20.173836	880.5002449999999	1102.452488	-94.499364	830.331695	1055.877964	-79.751797	951.2129640000001	1219.574314	-576.5883250000001	1036.435084	1211.585746	-464.598789	1065.823553	1168.102454	-508.994182	
5	1.18	928.030005	976.755408	-424.502413	931.345982	988.3717349999999	-184.832862	767.2694739999999	1024.368169	-350.882783	761.69517	1021.844256	-251.567873	926.407676	751.987299	-124.397264	1007.408961	688.031389	-143.111177	976.431844	585.891769	-164.958042	867.194778	772.0609030000001	-460.043484	903.732613	661.152169	-449.120352	825.0596829999999	563.835628	-439.502585	1043.139306	381.714457	-237.56096	1000.487101	302.830695	-191.644454	1020.43907	197.470515	-261.140909	750.416959	377.129059	-379.192585	652.155261	375.011287	-434.995821	582.546756	283.323779	-370.264887	913.4146459999999	105.510442	-288.857705	1134.485209	70.672003	-285.904873	1079.992554	50.513852	-188.632305	449.914645	313.016273	-355.596612	485.22779	97.735801	-339.929805	434.765187	125.842349	-433.229824	912.005972	1467.339395	-441.011607	913.926415	1457.725692	-147.898958	996.004827	1385.289265	-279.068962	866.49032	1491.635006	-294.101847	827.936163	1379.511201	-53.610401	750.014443	1348.753888	-93.949029	749.745963	1278.845627	-27.220664	694.903444	1227.921279	-10.131261	667.8045090000001	1223.208756	-83.761718	862.323973	1365.049698	-539.008527	807.897165	1302.019496	-523.502845	856.019725	1274.337605	-591.018959	840.928987	1192.127679	-629.143175	810.6347	1157.982992	-569.045526	785.468417	1155.99491	-17.211562	885.714023	1096.094337	-93.161738	836.28702	1048.816642	-77.78904799999999	946.398014	1212.538276	-577.356938	1033.313928	1202.144078	-466.579653	1061.495861	1159.061616	-512.122222	
6	1.19	928.350656	970.399679	-423.090004	931.094108	983.7171499999999	-183.686276	766.177699	1015.421003	-351.349053	760.081537	1014.478453	-252.793967	927.285022	749.604722	-123.491749	1009.821125	687.581686	-143.148913	981.369743	585.162885	-163.51729	873.125174	763.945032	-457.236242	911.944419	654.975655	-449.743765	837.03998	555.659727	-438.984544	1040.987464	379.981571	-239.926942	997.172245	303.03809	-192.277619	1008.335436	197.402953	-263.772642	763.023946	372.568208	-379.596806	664.815965	372.984365	-435.617662	590.957115	285.95148	-370.603218	894.287567	106.261657	-288.774947	1116.030087	69.969729	-286.205084	1060.592492	51.778044	-188.550065	459.930744	321.060413	-354.878473	487.753978	104.316139	-343.964024	436.86554	136.248491	-435.903472	909.329142	1462.063681	-440.963113	914.241528	1451.009206	-145.547638	995.587891	1378.822209	-278.952131	864.950044	1485.658776	-291.386615	830.5495979999999	1369.753233	-51.501453	751.943252	1338.469686	-90.071423	753.7043609999999	1268.729686	-23.653518	699.897553	1217.697006	-5.392761	671.649785	1212.1819	-78.61208600000001	857.44088	1358.381913	-537.42808	803.40976	1295.168434	-520.873153	850.001938	1268.545505	-589.942002	833.975533	1187.188635	-628.138229	804.5013750000001	1152.895412	-567.821989	791.344669	1146.937804	-13.964514	891.6573990000001	1088.938363	-91.88555700000001	842.8866389999999	1040.895347	-75.882203	940.959874	1204.82283	-578.203517	1030.12632	1191.716886	-468.56784	1056.252643	1148.876996	-515.727707	
